<svg width="24" height="24" viewBox="0 0 24 24" fill="none" xmlns="http://www.w3.org/2000/svg">
<path fill-rule="evenodd" clip-rule="evenodd" d="M12.0001 22C14.3871 22 16.6763 21.0635 18.3642 19.3965C19.2011 18.5719 19.8648 17.5922 20.3172 16.5135C20.7695 15.4348 21.0016 14.2785 21 13.111C21.0014 11.9434 20.7692 10.787 20.3167 9.70832C19.8641 8.62964 19.2002 7.64993 18.363 6.8255C17.533 6.0057 16.5721 5.38051 15.5509 4.7161C14.4047 3.97035 13.1826 3.1752 11.9844 2C9.18765 4.2222 8.62516 7.55549 8.62516 9.77769C6.37519 8.66659 5.63607 6.8255 5.63607 6.8255C3.94822 8.49251 3 10.7535 3 13.111C3 15.4685 3.94822 17.7295 5.63607 19.3965C7.32392 21.0635 9.61313 22 12.0001 22ZM12 18C13.0609 18 14.0784 17.6254 14.8285 16.9586C15.2005 16.6288 15.4955 16.2369 15.6965 15.8054C15.8976 15.3739 16.0007 14.9114 16 14.4444C16.0006 13.9773 15.8974 13.5148 15.6963 13.0833C15.4952 12.6519 15.2001 12.26 14.828 11.9302C14.4591 11.6023 14.032 11.3522 13.5782 11.0864C13.0688 10.7881 12.5256 10.4701 11.993 10C10.7501 10.8889 10.5001 12.2222 10.5001 13.1111C9.50008 12.6666 9.17159 11.9302 9.17159 11.9302C8.42143 12.597 8 13.5014 8 14.4444C8 15.3874 8.42143 16.2918 9.17159 16.9586C9.92174 17.6254 10.9392 18 12 18Z" fill="#F31630"/>
<path opacity="0.5" d="M14.8285 16.9586C14.0784 17.6254 13.0609 18 12 18C10.9392 18 9.92174 17.6254 9.17159 16.9586C8.42143 16.2918 8 15.3874 8 14.4444C8 13.5014 8.42143 12.597 9.17159 11.9302C9.17159 11.9302 9.50008 12.6666 10.5001 13.1111C10.5001 12.2222 10.7501 10.8889 11.993 10C13 10.8889 14.045 11.2342 14.828 11.9302C15.2001 12.26 15.4952 12.6519 15.6963 13.0833C15.8974 13.5148 16.0006 13.9773 16 14.4444C16.0007 14.9114 15.8976 15.3739 15.6965 15.8054C15.4955 16.2369 15.2005 16.6288 14.8285 16.9586Z" fill="#F31630"/>
</svg>
