<svg width="32" height="33" viewBox="0 0 32 33" fill="none" xmlns="http://www.w3.org/2000/svg">
<path d="M2.66666 25.8333C2.66666 25.097 3.26361 24.5 3.99999 24.5H28C28.7364 24.5 29.3333 25.097 29.3333 25.8333V27.1667C29.3333 27.903 28.7364 28.5 28 28.5H3.99999C3.26361 28.5 2.66666 27.903 2.66666 27.1667V25.8333Z" fill="#31ADF3"/>
<path d="M2.66666 8.2597C2.66666 7.62413 3.11527 7.07691 3.7385 6.95226L15.7385 4.55226C15.9111 4.51774 16.0889 4.51774 16.2615 4.55226L28.2615 6.95226C28.8847 7.07691 29.3333 7.62413 29.3333 8.2597V9.8333C29.3333 10.5697 28.7364 11.1666 28 11.1666H3.99999C3.26361 11.1666 2.66666 10.5697 2.66666 9.8333V8.2597Z" fill="#31ADF3"/>
<path opacity="0.5" d="M9.33331 13.8335C10.0697 13.8335 10.6666 14.4305 10.6666 15.1668L10.6666 20.5002C10.6666 21.2365 10.0697 21.8335 9.33331 21.8335H6.66665C5.93027 21.8335 5.33331 21.2365 5.33331 20.5002L5.33331 15.1668C5.33331 14.4305 5.93027 13.8335 6.66665 13.8335L9.33331 13.8335Z" fill="#31ADF3"/>
<path opacity="0.5" d="M17.3333 13.8335C18.0697 13.8335 18.6666 14.4305 18.6666 15.1668L18.6666 20.5002C18.6666 21.2365 18.0697 21.8335 17.3333 21.8335H14.6666C13.9303 21.8335 13.3333 21.2365 13.3333 20.5002L13.3333 15.1668C13.3333 14.4305 13.9303 13.8335 14.6666 13.8335L17.3333 13.8335Z" fill="#31ADF3"/>
<path opacity="0.5" d="M25.3333 13.8335C26.0697 13.8335 26.6667 14.4305 26.6667 15.1668L26.6667 20.5002C26.6667 21.2365 26.0697 21.8335 25.3333 21.8335H22.6667C21.9303 21.8335 21.3333 21.2365 21.3333 20.5002L21.3333 15.1668C21.3333 14.4305 21.9303 13.8335 22.6667 13.8335L25.3333 13.8335Z" fill="#31ADF3"/>
</svg>
