<svg width="172" height="159" viewBox="0 0 172 159" fill="none" xmlns="http://www.w3.org/2000/svg">
<g opacity="0.2" clip-path="url(#clip0_2_565)">
<path d="M162.963 16.1489L102.817 53.1414L94.1749 47.8714L171.275 0.490234L171.239 53.2928L137.344 74.1458L128.712 68.8872L162.894 47.8714L162.916 37.301L120.07 63.6398L111.449 58.3774L162.927 26.742L162.927 26.7306L162.941 26.7193L162.963 16.1489Z" fill="#31ADF3"/>
<path opacity="0.5" d="M8.39253 143.341L68.5381 106.349L77.1806 111.619L0.0800781 159L0.116348 106.197L34.0117 85.3444L42.6433 90.6031L8.46144 111.619L8.43967 122.189L51.2858 95.8504L59.9065 101.113L8.42879 132.748L8.42879 132.76L8.41429 132.771L8.39253 143.341Z" fill="#31ADF3"/>
<path d="M171.192 157.985L42.7302 79.4799L85.5655 53.1562L125.202 77.3257L171.218 105.421L171.218 115.867L125.202 87.8355L91.992 67.5883L85.6271 63.7115L85.6126 63.7115L77.0173 68.9967L91.992 78.117L125.202 98.3567L171.218 126.388L171.218 136.92L111.935 100.806L91.992 88.6646L68.4111 74.2932L68.4002 74.2932L59.8012 79.5784L91.992 99.1971L94.6359 100.806L171.192 147.453L171.192 157.985Z" fill="#31ADF3"/>
<path opacity="0.5" d="M8.39252 16.1489L68.5381 53.1414L77.1806 47.8714L0.0800781 0.490234L0.116343 53.2928L34.0117 74.1458L42.6433 68.8872L8.46143 47.8714L8.43967 37.301L51.2858 63.6398L59.9065 58.3774L8.42879 26.742L8.42879 26.7306L8.41428 26.7193L8.39252 16.1489Z" fill="#31ADF3"/>
</g>
<defs>
<clipPath id="clip0_2_565">
<rect width="172" height="159" fill="white"/>
</clipPath>
</defs>
</svg>
