<svg width="914" height="285" viewBox="0 0 914 285" fill="none" xmlns="http://www.w3.org/2000/svg">
<rect x="317" y="28" width="8" height="214" fill="#221F20"/>
<path d="M250.758 48.8366L169.282 98.8579L157.574 91.7318L262.019 27.6628L261.969 99.0627L216.053 127.26L204.36 120.149L250.665 91.7318L250.694 77.4385L192.653 113.054L180.975 105.938L250.709 63.1606L250.709 63.1452L250.729 63.1298L250.758 48.8366Z" fill="#31ADF3"/>
<path opacity="0.5" d="M41.3686 220.827L122.845 170.805L134.552 177.932L30.1082 242L30.1573 170.601L76.0737 142.403L87.7665 149.514L41.462 177.932L41.4325 192.225L99.474 156.609L111.152 163.725L41.4178 206.503L41.4178 206.518L41.3981 206.533L41.3686 220.827Z" fill="#31ADF3"/>
<path d="M261.906 240.628L87.8844 134.473L145.911 98.8782L199.605 131.56L261.94 169.551L261.94 183.675L199.605 145.772L154.617 118.393L145.995 113.151L145.975 113.151L134.331 120.298L154.617 132.63L199.605 159.998L261.94 197.902L261.94 212.144L181.633 163.311L154.617 146.893L122.673 127.46L122.658 127.46L111.01 134.606L154.617 161.135L158.198 163.311L261.906 226.386L261.906 240.628Z" fill="#31ADF3"/>
<path opacity="0.5" d="M41.3684 48.8366L122.845 98.858L134.552 91.7318L30.1079 27.6628L30.157 99.0627L76.0734 127.26L87.7662 120.149L41.4617 91.7318L41.4322 77.4385L99.4738 113.054L111.152 105.938L41.4175 63.1606L41.4175 63.1452L41.3979 63.1298L41.3684 48.8366Z" fill="#31ADF3"/>
<path d="M372.227 169.845V28.3452H521.34V53.912H404.982V82.2497H515.11V107.973H404.982V144.144H521.34V169.867L372.227 169.845Z" fill="#221F20"/>
<path d="M624.034 169.845L529.584 28.3452H566.761L636.704 135.858L705.232 28.3452H741.608L647.96 169.845H624.034Z" fill="#221F20"/>
<path d="M753.459 169.845V28.3452H902.572V53.912H786.214V82.2497H896.342V107.973H786.214V144.144H902.572V169.867L753.459 169.845Z" fill="#221F20"/>
<path d="M383.387 241.853H372V202.538H384.07C387.777 202.538 390.946 203.318 393.578 204.88C396.222 206.441 398.246 208.681 399.651 211.598C401.055 214.516 401.757 218.017 401.757 222.099C401.757 226.22 401.036 229.759 399.594 232.715C398.164 235.659 396.076 237.917 393.331 239.492C390.598 241.066 387.283 241.853 383.387 241.853ZM375.549 238.628H383.178C386.518 238.628 389.314 237.962 391.566 236.631C393.818 235.3 395.507 233.4 396.633 230.93C397.759 228.46 398.322 225.516 398.322 222.099C398.309 218.708 397.753 215.79 396.652 213.345C395.564 210.901 393.945 209.026 391.794 207.721C389.656 206.415 387.011 205.763 383.861 205.763H375.549V238.628Z" fill="#221F20"/>
<path d="M420.245 241.853V202.538H442.79V205.763H423.794V220.563H441.595V223.789H423.794V238.628H443.17V241.853H420.245Z" fill="#221F20"/>
<path d="M461.862 241.853V202.538H484.35V205.763H465.411V220.563H482.586V223.789H465.411V241.853H461.862Z" fill="#221F20"/>
<path d="M506.61 202.538V241.853H503.062V202.538H506.61Z" fill="#221F20"/>
<path d="M551.747 241.853V202.538H574.292V205.763H555.296V220.563H573.097V223.789H555.296V238.628H574.672V241.853H551.747Z" fill="#221F20"/>
<path d="M593.971 202.538L604.731 219.604H604.978L615.738 202.538H619.932L607.426 222.195L619.932 241.853H615.738L604.978 224.979H604.731L593.971 241.853H589.777L602.473 222.195L589.777 202.538H593.971Z" fill="#221F20"/>
<path d="M666.569 214.824H663.001C662.735 213.48 662.255 212.238 661.559 211.099C660.876 209.948 660.015 208.943 658.978 208.085C657.94 207.228 656.764 206.562 655.448 206.089C654.132 205.615 652.709 205.379 651.178 205.379C648.724 205.379 646.484 206.025 644.46 207.318C642.448 208.61 640.835 210.511 639.621 213.019C638.419 215.515 637.818 218.573 637.818 222.195C637.818 225.843 638.419 228.914 639.621 231.41C640.835 233.905 642.448 235.799 644.46 237.092C646.484 238.372 648.724 239.012 651.178 239.012C652.709 239.012 654.132 238.775 655.448 238.301C656.764 237.828 657.94 237.169 658.978 236.324C660.015 235.467 660.876 234.462 661.559 233.31C662.255 232.158 662.735 230.911 663.001 229.567H666.569C666.253 231.371 665.658 233.054 664.785 234.616C663.925 236.164 662.824 237.521 661.483 238.685C660.154 239.85 658.624 240.759 656.89 241.411C655.157 242.064 653.253 242.39 651.178 242.39C647.914 242.39 645.017 241.565 642.486 239.914C639.956 238.25 637.97 235.908 636.527 232.888C635.098 229.868 634.383 226.303 634.383 222.195C634.383 218.087 635.098 214.523 636.527 211.502C637.97 208.482 639.956 206.147 642.486 204.496C645.017 202.832 647.914 202 651.178 202C653.253 202 655.157 202.326 656.89 202.979C658.624 203.619 660.154 204.528 661.483 205.705C662.824 206.87 663.925 208.226 664.785 209.775C665.658 211.323 666.253 213.006 666.569 214.824Z" fill="#221F20"/>
<path d="M684.791 241.853V202.538H688.34V220.563H710.392V202.538H713.941V241.853H710.392V223.789H688.34V241.853H684.791Z" fill="#221F20"/>
<path d="M734.189 241.853H730.469L744.608 202.538H748.403L762.541 241.853H758.822L746.638 207.202H746.373L734.189 241.853ZM736.865 226.783H756.146V230.008H736.865V226.783Z" fill="#221F20"/>
<path d="M809.358 202.538V241.853H805.904L782.941 208.93H782.638V241.853H779.089V202.538H782.524L805.563 235.499H805.866V202.538H809.358Z" fill="#221F20"/>
<path d="M856.469 214.824C856.115 213.518 855.596 212.296 854.913 211.157C854.23 210.005 853.382 209 852.37 208.143C851.371 207.273 850.213 206.594 848.897 206.108C847.594 205.622 846.139 205.379 844.532 205.379C842.002 205.379 839.737 206.044 837.738 207.375C835.739 208.706 834.158 210.626 832.994 213.134C831.843 215.643 831.267 218.663 831.267 222.195C831.267 225.715 831.849 228.729 833.013 231.237C834.177 233.745 835.771 235.671 837.795 237.015C839.832 238.346 842.16 239.012 844.779 239.012C847.17 239.012 849.283 238.474 851.117 237.399C852.952 236.324 854.382 234.788 855.406 232.792C856.444 230.795 856.95 228.421 856.925 225.67L858.063 226.035H845.614V222.809H860.379V226.035C860.379 229.388 859.708 232.286 858.367 234.731C857.026 237.175 855.185 239.063 852.844 240.394C850.504 241.725 847.815 242.39 844.779 242.39C841.388 242.39 838.422 241.565 835.879 239.914C833.336 238.25 831.356 235.908 829.939 232.888C828.534 229.855 827.832 226.291 827.832 222.195C827.832 219.111 828.237 216.327 829.047 213.845C829.856 211.362 831.001 209.237 832.482 207.471C833.974 205.705 835.739 204.355 837.776 203.421C839.813 202.474 842.065 202 844.532 202C846.658 202 848.6 202.339 850.358 203.017C852.13 203.696 853.686 204.63 855.027 205.82C856.381 206.998 857.488 208.361 858.348 209.909C859.221 211.445 859.809 213.083 860.113 214.824H856.469Z" fill="#221F20"/>
<path d="M879.075 241.853V202.538H901.621V205.763H882.624V220.563H900.425V223.789H882.624V238.628H902V241.853H879.075Z" fill="#221F20"/>
</svg>
