<svg width="10" height="11" viewBox="0 0 10 11" fill="none" xmlns="http://www.w3.org/2000/svg">
<path opacity="0.3" d="M5 1.5C2.795 1.5 1 3.295 1 5.5C1 7.705 2.795 9.5 5 9.5C7.205 9.5 9 7.705 9 5.5C9 3.295 7.205 1.5 5 1.5ZM5.5 8H4.5V5H5.5V8ZM5.5 4H4.5V3H5.5V4Z" fill="#ABDDFA"/>
<path d="M4.5 3H5.5V4H4.5V3ZM4.5 5H5.5V8H4.5V5ZM5 0.5C2.24 0.5 0 2.74 0 5.5C0 8.26 2.24 10.5 5 10.5C7.76 10.5 10 8.26 10 5.5C10 2.74 7.76 0.5 5 0.5ZM5 9.5C2.795 9.5 1 7.705 1 5.5C1 3.295 2.795 1.5 5 1.5C7.205 1.5 9 3.295 9 5.5C9 7.705 7.205 9.5 5 9.5Z" fill="#ABDDFA"/>
</svg>
