<svg width="14" height="14" viewBox="0 0 14 14" fill="none" xmlns="http://www.w3.org/2000/svg">
<path d="M6.99967 5.50552C6.67267 5.50552 6.35302 5.60248 6.08113 5.78415C5.80924 5.96582 5.59733 6.22404 5.47219 6.52615C5.34705 6.82825 5.31431 7.16068 5.37811 7.4814C5.4419 7.80211 5.59937 8.09671 5.83059 8.32793C6.06181 8.55916 6.35641 8.71662 6.67712 8.78041C6.99784 8.84421 7.33027 8.81147 7.63237 8.68633C7.93448 8.56119 8.1927 8.34928 8.37437 8.07739C8.55604 7.8055 8.653 7.48585 8.653 7.15885C8.653 6.94173 8.61024 6.72674 8.52715 6.52615C8.44406 6.32556 8.32228 6.14329 8.16875 5.98977C8.01523 5.83624 7.83296 5.71446 7.63237 5.63137C7.43178 5.54828 7.21679 5.50552 6.99967 5.50552V5.50552ZM13.6197 3.87219C13.6162 3.35736 13.5214 2.84723 13.3397 2.36552C13.2059 2.01303 12.9988 1.69292 12.7322 1.42631C12.4656 1.1597 12.1455 0.952665 11.793 0.818854C11.3113 0.637163 10.8012 0.542361 10.2863 0.538854C9.42634 0.492187 9.173 0.492187 6.99967 0.492187C4.82634 0.492187 4.57301 0.492187 3.71301 0.538854C3.19818 0.542361 2.68805 0.637163 2.20634 0.818854C1.85385 0.952666 1.53374 1.1597 1.26713 1.42631C1.00053 1.69292 0.793486 2.01303 0.659674 2.36552C0.477984 2.84723 0.383182 3.35736 0.379674 3.87219C0.333008 4.73219 0.333008 4.98552 0.333008 7.15885C0.333008 9.33218 0.333008 9.58552 0.379674 10.4455C0.38685 10.9622 0.481524 11.4738 0.659674 11.9588C0.792893 12.3097 0.99976 12.628 1.26634 12.8922C1.5318 13.1604 1.8526 13.3674 2.20634 13.4988C2.68805 13.6805 3.19818 13.7753 3.71301 13.7788C4.57301 13.8255 4.82634 13.8255 6.99967 13.8255C9.173 13.8255 9.42634 13.8255 10.2863 13.7788C10.8012 13.7753 11.3113 13.6805 11.793 13.4988C12.1467 13.3674 12.4675 13.1604 12.733 12.8922C12.9996 12.628 13.2064 12.3097 13.3397 11.9588C13.5212 11.4748 13.616 10.9625 13.6197 10.4455C13.6663 9.58552 13.6663 9.33218 13.6663 7.15885C13.6663 4.98552 13.6663 4.73218 13.6197 3.87219V3.87219ZM11.9263 9.20552C11.9049 9.61692 11.8171 10.0222 11.6663 10.4055C11.5369 10.7253 11.3445 11.0158 11.1006 11.2597C10.8566 11.5037 10.5661 11.6961 10.2463 11.8255C9.85934 11.9679 9.45185 12.0467 9.03967 12.0588C8.513 12.0588 8.373 12.0588 6.99967 12.0588C5.62634 12.0588 5.48634 12.0588 4.95967 12.0588C4.54749 12.0467 4.14 11.9679 3.75301 11.8255C3.42241 11.7027 3.12386 11.5067 2.87967 11.2522C2.63812 11.013 2.45157 10.7241 2.33301 10.4055C2.19004 10.0189 2.11341 9.61096 2.10634 9.19885C2.10634 8.67218 2.10634 8.53218 2.10634 7.15885C2.10634 5.78552 2.10634 5.64552 2.10634 5.11885C2.11341 4.70674 2.19004 4.29877 2.33301 3.91219C2.45586 3.58159 2.65186 3.28304 2.90634 3.03885C3.14656 2.7986 3.43518 2.61225 3.75301 2.49219C4.14 2.34979 4.54749 2.27099 4.95967 2.25885V2.25885C5.48634 2.25885 5.62634 2.25885 6.99967 2.25885C8.373 2.25885 8.513 2.25885 9.03967 2.25885C9.45185 2.27099 9.85934 2.34979 10.2463 2.49219C10.5769 2.61504 10.8755 2.81104 11.1197 3.06552C11.3612 3.30468 11.5478 3.59361 11.6663 3.91219C11.8087 4.29918 11.8875 4.70667 11.8997 5.11885C11.8997 5.64552 11.8997 5.78552 11.8997 7.15885C11.8997 8.53218 11.9463 8.67218 11.9263 9.19885L11.9263 9.20552ZM10.8597 4.24552C10.7803 4.03017 10.6551 3.83461 10.4929 3.67233C10.3306 3.51004 10.135 3.38489 9.91967 3.30552C9.62398 3.20303 9.31257 3.15338 8.99967 3.15885C8.47967 3.15885 8.333 3.15885 6.99967 3.15885C5.66634 3.15885 5.51967 3.15885 4.99967 3.15885C4.68518 3.16193 4.37372 3.22061 4.07967 3.33219C3.86762 3.40796 3.67413 3.52799 3.51206 3.68432C3.34999 3.84064 3.22305 4.02968 3.13967 4.23885C3.04286 4.53576 2.99556 4.84658 2.99967 5.15885C2.99967 5.67885 2.99967 5.82552 2.99967 7.15885C2.99967 8.49218 2.99967 8.63885 2.99967 9.15885C3.00628 9.47298 3.06485 9.78385 3.17301 10.0788C3.25238 10.2942 3.37753 10.4898 3.53981 10.652C3.7021 10.8143 3.89766 10.9395 4.11301 11.0188C4.39745 11.1235 4.69677 11.182 4.99967 11.1922V11.1922C5.51967 11.1922 5.66634 11.1922 6.99967 11.1922C8.333 11.1922 8.47967 11.1922 8.99967 11.1922C9.31416 11.1891 9.62562 11.1304 9.91967 11.0188C10.135 10.9395 10.3306 10.8143 10.4929 10.652C10.6551 10.4898 10.7803 10.2942 10.8597 10.0788C10.9712 9.7848 11.0299 9.47334 11.033 9.15885C11.033 8.63885 11.033 8.49218 11.033 7.15885C11.033 5.82552 11.033 5.67885 11.033 5.15885C11.0332 4.84405 10.9744 4.532 10.8597 4.23885L10.8597 4.24552ZM6.99967 9.70552C6.66555 9.70552 6.33471 9.6396 6.02611 9.51153C5.71751 9.38347 5.43721 9.19578 5.20126 8.95921C4.96531 8.72264 4.77836 8.44185 4.6511 8.13291C4.52385 7.82398 4.45879 7.49297 4.45967 7.15885V7.15885C4.45967 6.65488 4.6092 6.16225 4.88933 5.74331C5.16946 5.32437 5.56759 4.99796 6.03332 4.80541C6.49905 4.61285 7.01144 4.56281 7.50562 4.66162C7.99981 4.76042 8.45357 5.00363 8.80946 5.36046C9.16535 5.71728 9.40737 6.17168 9.50488 6.66612C9.60239 7.16056 9.551 7.67282 9.35723 8.13804C9.16346 8.60327 8.83601 9.00054 8.41633 9.27957C7.99666 9.5586 7.50364 9.70683 6.99967 9.70552V9.70552ZM9.66634 5.11218C9.51896 5.09659 9.38258 5.027 9.28346 4.91683C9.18434 4.80666 9.12949 4.66371 9.12949 4.51552C9.12949 4.36732 9.18434 4.22437 9.28346 4.1142C9.38258 4.00404 9.51896 3.93445 9.66634 3.91885V3.91885C9.81371 3.93445 9.95009 4.00404 10.0492 4.1142C10.1483 4.22437 10.2032 4.36732 10.2032 4.51552C10.2032 4.66371 10.1483 4.80666 10.0492 4.91683C9.95009 5.027 9.81371 5.09659 9.66634 5.11218Z" fill="#9CA3AF"/>
</svg>
