<svg width="19" height="19" viewBox="0 0 19 19" fill="none" xmlns="http://www.w3.org/2000/svg">
<path opacity="0.5" d="M11.6776 0C10.897 0 10.1338 0.244046 9.48471 0.701276C8.8356 1.15851 8.32968 1.80838 8.03093 2.56873C7.73218 3.32908 7.65401 4.16574 7.80631 4.97292C7.95862 5.7801 8.33455 6.52154 8.88657 7.10348C9.43859 7.68542 10.1419 8.08173 10.9076 8.24229C11.6733 8.40285 12.4669 8.32044 13.1881 8.0055C13.9094 7.69055 14.5259 7.15721 14.9596 6.47292C15.3933 5.78862 15.6248 4.98411 15.6248 4.16112C15.6238 3.05786 15.2076 2.00011 14.4675 1.21998C13.7275 0.43986 12.7242 0.00110271 11.6776 0ZM12.2381 5.95041H11.1092V2.38016H12.2381V5.95041Z" fill="white"/>
<path d="M18.9601 13.2772C18.8787 12.887 18.6733 12.5379 18.378 12.2876C18.0827 12.0373 17.7151 11.9008 17.3362 11.9008H13.8468C13.9031 12.1826 13.9315 12.4697 13.9315 12.7577V13.3527C13.9315 13.5105 13.872 13.6619 13.7661 13.7735C13.6603 13.8851 13.5167 13.9478 13.367 13.9478H7.09367C6.81753 13.9478 6.59367 13.7239 6.59367 13.4478V13.2577C6.59367 12.9815 6.81753 12.7577 7.09367 12.7577H12.8026C12.8026 11.9686 12.5052 11.2119 11.976 10.6539C11.4467 10.0959 10.7288 9.78248 9.98034 9.78248H6.3329C5.93679 9.32394 5.45404 8.95788 4.91568 8.70783C4.37733 8.45777 3.79529 8.32927 3.207 8.33058H1.44922C1.17308 8.33058 0.949219 8.55443 0.949219 8.83058V14.5745C0.949219 14.76 1.05186 14.9302 1.21587 15.0167L6.13647 17.6132C7.1559 18.1507 8.33042 18.2619 9.42436 17.9244L17.803 15.339C18.2081 15.2143 18.5531 14.9319 18.7679 14.5491C18.9828 14.1662 19.0515 13.7115 18.9601 13.2772Z" fill="white"/>
</svg>
