<svg width="16" height="15" viewBox="0 0 16 15" fill="none" xmlns="http://www.w3.org/2000/svg">
<path d="M12.0833 4.48063C11.7917 4.31396 11.4167 4.31396 11.0833 4.48063L8.75 5.85563L7.16667 6.73063L4.875 8.10563C4.58333 8.2723 4.20833 8.2723 3.875 8.10563L2.08333 7.0223C1.79167 6.85563 1.58333 6.5223 1.58333 6.1473V4.06396C1.58333 3.73063 1.75 3.3973 2.08333 3.18896L3.875 2.1473C4.16667 1.98063 4.54167 1.98063 4.875 2.1473L6.66667 3.23063C6.95833 3.3973 7.16667 3.73063 7.16667 4.10563V5.48063L8.75 4.56396V3.1473C8.75 2.81396 8.58333 2.48063 8.25 2.2723L4.91667 0.313965C4.625 0.147298 4.25 0.147298 3.91667 0.313965L0.5 2.31396C0.166667 2.48063 0 2.81396 0 3.1473V7.06396C0 7.3973 0.166667 7.73063 0.5 7.93896L3.875 9.8973C4.16667 10.064 4.54167 10.064 4.875 9.8973L7.16667 8.56396L8.75 7.6473L11.0417 6.31396C11.3333 6.1473 11.7083 6.1473 12.0417 6.31396L13.8333 7.35563C14.125 7.5223 14.3333 7.85563 14.3333 8.23063V10.314C14.3333 10.6473 14.1667 10.9806 13.8333 11.189L12.0833 12.2306C11.7917 12.3973 11.4167 12.3973 11.0833 12.2306L9.29167 11.189C9 11.0223 8.79167 10.689 8.79167 10.314V8.98063L7.20833 9.8973V11.2723C7.20833 11.6056 7.375 11.939 7.70833 12.1473L11.0833 14.1056C11.375 14.2723 11.75 14.2723 12.0833 14.1056L15.4583 12.1473C15.75 11.9806 15.9583 11.6473 15.9583 11.2723V7.31396C15.9583 6.98063 15.7917 6.6473 15.4583 6.43896L12.0833 4.48063Z" fill="#8247E5"/>
</svg>
