<svg width="24" height="25" viewBox="0 0 24 25" fill="none" xmlns="http://www.w3.org/2000/svg">
<path d="M20.6476 3.17432L13.1523 8.74117L14.5384 5.4568L20.6476 3.17432Z" fill="#E2761B" stroke="#E2761B" stroke-linecap="round" stroke-linejoin="round"/>
<path d="M3.34473 3.17432L10.7798 8.7939L9.46149 5.4568L3.34473 3.17432Z" fill="#E4761B" stroke="#E4761B" stroke-linecap="round" stroke-linejoin="round"/>
<path d="M17.9513 16.0781L15.9551 19.1365L20.2263 20.3116L21.4541 16.1459L17.9513 16.0781Z" fill="#E4761B" stroke="#E4761B" stroke-linecap="round" stroke-linejoin="round"/>
<path d="M2.55371 16.1459L3.77405 20.3116L8.04524 19.1365L6.049 16.0781L2.55371 16.1459Z" fill="#E4761B" stroke="#E4761B" stroke-linecap="round" stroke-linejoin="round"/>
<path d="M7.80446 10.9105L6.61426 12.7109L10.8553 12.8992L10.7047 8.3418L7.80446 10.9105Z" fill="#E4761B" stroke="#E4761B" stroke-linecap="round" stroke-linejoin="round"/>
<path d="M16.1881 10.9105L13.2503 8.28906L13.1523 12.8992L17.3859 12.7109L16.1881 10.9105Z" fill="#E4761B" stroke="#E4761B" stroke-linecap="round" stroke-linejoin="round"/>
<path d="M8.04492 19.1367L10.5911 17.8938L8.39144 16.1763L8.04492 19.1367Z" fill="#E4761B" stroke="#E4761B" stroke-linecap="round" stroke-linejoin="round"/>
<path d="M13.4014 17.8938L15.955 19.1367L15.601 16.1763L13.4014 17.8938Z" fill="#E4761B" stroke="#E4761B" stroke-linecap="round" stroke-linejoin="round"/>
<path d="M15.9541 19.1365L13.4004 17.8936L13.6038 19.5583L13.5812 20.2589L15.9541 19.1365Z" fill="#D7C1B3" stroke="#D7C1B3" stroke-linecap="round" stroke-linejoin="round"/>
<path d="M8.04492 19.1365L10.4178 20.2589L10.4027 19.5583L10.5911 17.8936L8.04492 19.1365Z" fill="#D7C1B3" stroke="#D7C1B3" stroke-linecap="round" stroke-linejoin="round"/>
<path d="M10.4553 15.0764L8.33105 14.4511L9.83011 13.7656L10.4553 15.0764Z" fill="#233447" stroke="#233447" stroke-linecap="round" stroke-linejoin="round"/>
<path d="M13.5371 15.0764L14.1623 13.7656L15.6689 14.4511L13.5371 15.0764Z" fill="#233447" stroke="#233447" stroke-linecap="round" stroke-linejoin="round"/>
<path d="M8.04506 19.1365L8.40664 16.0781L6.04883 16.1459L8.04506 19.1365Z" fill="#CD6116" stroke="#CD6116" stroke-linecap="round" stroke-linejoin="round"/>
<path d="M15.5928 16.0781L15.9544 19.1365L17.9506 16.1459L15.5928 16.0781Z" fill="#CD6116" stroke="#CD6116" stroke-linecap="round" stroke-linejoin="round"/>
<path d="M17.3859 12.7109L13.1523 12.8993L13.5441 15.0763L14.1693 13.7656L15.6759 14.451L17.3859 12.7109Z" fill="#CD6116" stroke="#CD6116" stroke-linecap="round" stroke-linejoin="round"/>
<path d="M8.33177 14.451L9.83836 13.7656L10.4561 15.0763L10.8553 12.8993L6.61426 12.7109L8.33177 14.451Z" fill="#CD6116" stroke="#CD6116" stroke-linecap="round" stroke-linejoin="round"/>
<path d="M6.61426 12.7109L8.39204 16.1761L8.33177 14.451L6.61426 12.7109Z" fill="#E4751F" stroke="#E4751F" stroke-linecap="round" stroke-linejoin="round"/>
<path d="M15.6769 14.451L15.6016 16.1761L17.3869 12.7109L15.6769 14.451Z" fill="#E4751F" stroke="#E4751F" stroke-linecap="round" stroke-linejoin="round"/>
<path d="M10.8553 12.8994L10.4561 15.0764L10.9532 17.6452L11.0662 14.2629L10.8553 12.8994Z" fill="#E4751F" stroke="#E4751F" stroke-linecap="round" stroke-linejoin="round"/>
<path d="M13.1526 12.8994L12.9492 14.2553L13.0396 17.6452L13.5443 15.0764L13.1526 12.8994Z" fill="#E4751F" stroke="#E4751F" stroke-linecap="round" stroke-linejoin="round"/>
<path d="M13.5438 15.0764L13.0391 17.6451L13.4006 17.8937L15.6003 16.1762L15.6756 14.4512L13.5438 15.0764Z" fill="#F6851B" stroke="#F6851B" stroke-linecap="round" stroke-linejoin="round"/>
<path d="M8.33105 14.4512L8.39132 16.1762L10.5909 17.8937L10.9525 17.6451L10.4553 15.0764L8.33105 14.4512Z" fill="#F6851B" stroke="#F6851B" stroke-linecap="round" stroke-linejoin="round"/>
<path d="M13.5816 20.2591L13.6042 19.5586L13.4159 19.3928H10.576L10.4027 19.5586L10.4178 20.2591L8.04492 19.1367L8.87355 19.8147L10.5534 20.9823H13.4385L15.1259 19.8147L15.9545 19.1367L13.5816 20.2591Z" fill="#C0AD9E" stroke="#C0AD9E" stroke-linecap="round" stroke-linejoin="round"/>
<path d="M13.4014 17.8936L13.0399 17.645H10.9532L10.5916 17.8936L10.4033 19.5584L10.5766 19.3927H13.4165L13.6048 19.5584L13.4014 17.8936Z" fill="#161616" stroke="#161616" stroke-linecap="round" stroke-linejoin="round"/>
<path d="M20.9645 9.10275L21.6048 6.02931L20.6481 3.17432L13.4014 8.55285L16.1886 10.9107L20.1283 12.0632L21.0021 11.0463L20.6255 10.7751L21.2281 10.2252L20.7611 9.86358L21.3637 9.40407L20.9645 9.10275Z" fill="#763D16" stroke="#763D16" stroke-linecap="round" stroke-linejoin="round"/>
<path d="M2.39551 6.02931L3.03581 9.10275L2.62903 9.40407L3.23167 9.86358L2.77216 10.2252L3.37479 10.7751L2.99814 11.0463L3.86443 12.0632L7.80417 10.9107L10.5914 8.55285L3.34466 3.17432L2.39551 6.02931Z" fill="#763D16" stroke="#763D16" stroke-linecap="round" stroke-linejoin="round"/>
<path d="M20.1279 12.0632L16.1882 10.9106L17.3859 12.711L15.6006 16.1762L17.9509 16.146H21.4537L20.1279 12.0632Z" fill="#F6851B" stroke="#F6851B" stroke-linecap="round" stroke-linejoin="round"/>
<path d="M7.80418 10.9106L3.86445 12.0632L2.55371 16.146H6.049L8.39175 16.1762L6.61397 12.711L7.80418 10.9106Z" fill="#F6851B" stroke="#F6851B" stroke-linecap="round" stroke-linejoin="round"/>
<path d="M13.1521 12.8991L13.4007 8.55259L14.5457 5.45654H9.46094L10.5909 8.55259L10.8545 12.8991L10.9449 14.2701L10.9525 17.6449H13.0391L13.0542 14.2701L13.1521 12.8991Z" fill="#F6851B" stroke="#F6851B" stroke-linecap="round" stroke-linejoin="round"/>
</svg>
