<svg width="56" height="56" viewBox="0 0 56 56" fill="none" xmlns="http://www.w3.org/2000/svg">
<path d="M48.1785 6.23975L30.6895 19.2291L33.9236 11.5655L48.1785 6.23975Z" fill="#E2761B" stroke="#E2761B" stroke-linecap="round" stroke-linejoin="round"/>
<path d="M7.8042 6.23975L25.1526 19.3521L22.0766 11.5655L7.8042 6.23975Z" fill="#E4761B" stroke="#E4761B" stroke-linecap="round" stroke-linejoin="round"/>
<path d="M41.8859 36.349L37.228 43.4852L47.1941 46.2272L50.0592 36.5072L41.8859 36.349Z" fill="#E4761B" stroke="#E4761B" stroke-linecap="round" stroke-linejoin="round"/>
<path d="M5.9585 36.5072L8.80595 46.2272L18.7721 43.4852L14.1142 36.349L5.9585 36.5072Z" fill="#E4761B" stroke="#E4761B" stroke-linecap="round" stroke-linejoin="round"/>
<path d="M18.2098 24.2912L15.4326 28.4921L25.3284 28.9315L24.9769 18.2975L18.2098 24.2912Z" fill="#E4761B" stroke="#E4761B" stroke-linecap="round" stroke-linejoin="round"/>
<path d="M37.7725 24.2912L30.9175 18.1744L30.689 28.9315L40.5672 28.4921L37.7725 24.2912Z" fill="#E4761B" stroke="#E4761B" stroke-linecap="round" stroke-linejoin="round"/>
<path d="M18.772 43.4852L24.713 40.585L19.5805 36.5775L18.772 43.4852Z" fill="#E4761B" stroke="#E4761B" stroke-linecap="round" stroke-linejoin="round"/>
<path d="M31.269 40.585L37.2276 43.4852L36.4015 36.5775L31.269 40.585Z" fill="#E4761B" stroke="#E4761B" stroke-linecap="round" stroke-linejoin="round"/>
<path d="M37.2276 43.4853L31.269 40.5851L31.7436 44.4696L31.6909 46.1042L37.2276 43.4853Z" fill="#D7C1B3" stroke="#D7C1B3" stroke-linecap="round" stroke-linejoin="round"/>
<path d="M18.772 43.4853L24.3087 46.1042L24.2735 44.4696L24.713 40.5851L18.772 43.4853Z" fill="#D7C1B3" stroke="#D7C1B3" stroke-linecap="round" stroke-linejoin="round"/>
<path d="M24.3966 34.0113L19.4399 32.5524L22.9377 30.9529L24.3966 34.0113Z" fill="#233447" stroke="#233447" stroke-linecap="round" stroke-linejoin="round"/>
<path d="M31.5854 34.0113L33.0443 30.9529L36.5597 32.5524L31.5854 34.0113Z" fill="#233447" stroke="#233447" stroke-linecap="round" stroke-linejoin="round"/>
<path d="M18.7721 43.4853L19.6158 36.3491L14.1143 36.5073L18.7721 43.4853Z" fill="#CD6116" stroke="#CD6116" stroke-linecap="round" stroke-linejoin="round"/>
<path d="M36.3843 36.3491L37.228 43.4853L41.8858 36.5073L36.3843 36.3491Z" fill="#CD6116" stroke="#CD6116" stroke-linecap="round" stroke-linejoin="round"/>
<path d="M40.5677 28.4922L30.6895 28.9316L31.6035 34.0113L33.0623 30.953L36.5777 32.5524L40.5677 28.4922Z" fill="#CD6116" stroke="#CD6116" stroke-linecap="round" stroke-linejoin="round"/>
<path d="M19.4401 32.5524L22.9555 30.953L24.3968 34.0113L25.3284 28.9316L15.4326 28.4922L19.4401 32.5524Z" fill="#CD6116" stroke="#CD6116" stroke-linecap="round" stroke-linejoin="round"/>
<path d="M15.4326 28.4922L19.5808 36.5776L19.4401 32.5524L15.4326 28.4922Z" fill="#E4751F" stroke="#E4751F" stroke-linecap="round" stroke-linejoin="round"/>
<path d="M36.5776 32.5524L36.4019 36.5776L40.5676 28.4922L36.5776 32.5524Z" fill="#E4751F" stroke="#E4751F" stroke-linecap="round" stroke-linejoin="round"/>
<path d="M25.3285 28.9316L24.397 34.0114L25.557 40.0051L25.8207 32.1131L25.3285 28.9316Z" fill="#E4751F" stroke="#E4751F" stroke-linecap="round" stroke-linejoin="round"/>
<path d="M30.6894 28.9316L30.2148 32.0955L30.4258 40.0051L31.6034 34.0114L30.6894 28.9316Z" fill="#E4751F" stroke="#E4751F" stroke-linecap="round" stroke-linejoin="round"/>
<path d="M31.6034 34.0113L30.4258 40.005L31.2695 40.585L36.4019 36.5775L36.5777 32.5524L31.6034 34.0113Z" fill="#F6851B" stroke="#F6851B" stroke-linecap="round" stroke-linejoin="round"/>
<path d="M19.4399 32.5524L19.5806 36.5775L24.713 40.585L25.5567 40.005L24.3966 34.0113L19.4399 32.5524Z" fill="#F6851B" stroke="#F6851B" stroke-linecap="round" stroke-linejoin="round"/>
<path d="M31.691 46.1042L31.7437 44.4695L31.3043 44.0828H24.6778L24.2735 44.4695L24.3087 46.1042L18.772 43.4852L20.7054 45.0672L24.6251 47.7916H31.357L35.2943 45.0672L37.2277 43.4852L31.691 46.1042Z" fill="#C0AD9E" stroke="#C0AD9E" stroke-linecap="round" stroke-linejoin="round"/>
<path d="M31.2695 40.585L30.4258 40.005H25.557L24.7133 40.585L24.2739 44.4695L24.6782 44.0828H31.3047L31.7441 44.4695L31.2695 40.585Z" fill="#221F20" stroke="#221F20" stroke-linecap="round" stroke-linejoin="round"/>
<path d="M48.9162 20.0728L50.4103 12.9014L48.178 6.23975L31.269 18.7897L37.7725 24.2912L46.9652 26.9805L49.0041 24.6076L48.1253 23.9748L49.5314 22.6917L48.4417 21.848L49.8478 20.7758L48.9162 20.0728Z" fill="#763D16" stroke="#763D16" stroke-linecap="round" stroke-linejoin="round"/>
<path d="M5.58936 12.9014L7.08339 20.0728L6.13424 20.7758L7.54039 21.848L6.4682 22.6917L7.87435 23.9748L6.99551 24.6076L9.01685 26.9805L18.2096 24.2912L24.713 18.7897L7.80405 6.23975L5.58936 12.9014Z" fill="#763D16" stroke="#763D16" stroke-linecap="round" stroke-linejoin="round"/>
<path d="M46.9656 26.9805L37.7729 24.2913L40.5676 28.4921L36.4019 36.5775L41.8858 36.5072H50.0591L46.9656 26.9805Z" fill="#F6851B" stroke="#F6851B" stroke-linecap="round" stroke-linejoin="round"/>
<path d="M18.2096 24.2913L9.01688 26.9805L5.9585 36.5072H14.1142L19.5806 36.5775L15.4324 28.4921L18.2096 24.2913Z" fill="#F6851B" stroke="#F6851B" stroke-linecap="round" stroke-linejoin="round"/>
<path d="M30.6893 28.9315L31.2694 18.7897L33.9411 11.5656H22.0767L24.7132 18.7897L25.3284 28.9315L25.5393 32.1305L25.5569 40.005H30.4257L30.4608 32.1305L30.6893 28.9315Z" fill="#F6851B" stroke="#F6851B" stroke-linecap="round" stroke-linejoin="round"/>
</svg>
