<svg width="24" height="24" viewBox="0 0 24 24" fill="none" xmlns="http://www.w3.org/2000/svg">
<path fill-rule="evenodd" clip-rule="evenodd" d="M5 2C4.44772 2 4 2.44772 4 3V21C4 21.5523 4.44772 22 5 22H19C19.5523 22 20 21.5523 20 21V12V7.5V5H18C17.5 5 17.25 5 17.125 4.875C17 4.75 17 4.5 17 4V2H15.5H12H5ZM14.6474 17.8357L14.6472 17.8357L13.9714 17.8325L13.9712 17.8325L9.17557 17.8096C9.06521 17.8091 8.98921 17.8971 9.00584 18.0062L9.1864 19.1915C9.20302 19.3006 9.30596 19.3895 9.41632 19.39L14.0123 19.4119L14.06 19.7252C14.0868 19.9012 14.3155 19.9904 14.4224 19.8665L15.8797 18.1786C15.9866 18.0547 15.865 17.8415 15.687 17.8407L14.6474 17.8357ZM9.80588 14.2397L8.34861 15.9276C8.24169 16.0514 8.36326 16.2646 8.54128 16.2655L9.5806 16.2705L9.58114 16.2705L10.2569 16.2737L15.0527 16.2965C15.1631 16.2971 15.2391 16.209 15.2225 16.0999L15.0419 14.9147C15.0253 14.8055 14.9223 14.7167 14.812 14.7162L10.216 14.6942L10.1683 14.381C10.1415 14.205 9.91281 14.1158 9.80588 14.2397ZM16 8.00004C16 10.2092 14.2091 12 12 12C9.79082 12 7.99996 10.2092 7.99996 8.00004C7.99996 5.7909 9.79082 4.00004 12 4.00004C14.2091 4.00004 16 5.7909 16 8.00004ZM12.4443 5.77787H11.5555V8.44454H13.3332V7.55565H12.4443V5.77787Z" fill="white"/>
</svg>
