<svg width="10" height="8" viewBox="0 0 10 8" fill="none" xmlns="http://www.w3.org/2000/svg">
<path d="M7.40334 2.53063C7.24015 2.43738 7.03033 2.43738 6.84383 2.53063L5.5383 3.29996L4.65241 3.78953L3.3702 4.55886C3.20701 4.65211 2.99719 4.65211 2.81068 4.55886L1.80823 3.95272C1.64504 3.85947 1.52847 3.67297 1.52847 3.46315V2.2975C1.52847 2.111 1.62172 1.92449 1.80823 1.80793L2.81068 1.2251C2.97388 1.13185 3.18369 1.13185 3.3702 1.2251L4.37265 1.83124C4.53584 1.92449 4.65241 2.111 4.65241 2.32081V3.09014L5.5383 2.57726V1.78462C5.5383 1.59811 5.44505 1.41161 5.25855 1.29504L3.39351 0.199333C3.23032 0.106082 3.0205 0.106082 2.834 0.199333L0.922334 1.31836C0.73583 1.41161 0.642578 1.59811 0.642578 1.78462V3.97604C0.642578 4.16254 0.73583 4.34904 0.922334 4.46561L2.81068 5.56132C2.97388 5.65457 3.18369 5.65457 3.3702 5.56132L4.65241 4.8153L5.5383 4.30242L6.82052 3.5564C6.98371 3.46315 7.19352 3.46315 7.38003 3.5564L8.38249 4.13923C8.54568 4.23248 8.66224 4.41898 8.66224 4.6288V5.79445C8.66224 5.98095 8.56899 6.16745 8.38249 6.28402L7.40334 6.86684C7.24015 6.9601 7.03033 6.9601 6.84383 6.86684L5.84137 6.28402C5.67818 6.19077 5.56162 6.00426 5.56162 5.79445V5.04843L4.67572 5.56132V6.33065C4.67572 6.51715 4.76897 6.70365 4.95548 6.82022L6.84383 7.91593C7.00702 8.00918 7.21684 8.00918 7.40334 7.91593L9.29169 6.82022C9.45488 6.72697 9.57145 6.54046 9.57145 6.33065V4.11591C9.57145 3.92941 9.47819 3.74291 9.29169 3.62634L7.40334 2.53063Z" fill="#8247E5"/>
</svg>
