<svg width="17" height="16" viewBox="0 0 17 16" fill="none" xmlns="http://www.w3.org/2000/svg">
<path d="M12.0481 1.40762C11.6317 1.81933 11.2502 2.26556 10.9111 2.74137L10.8039 2.70685C10.1855 2.50716 9.54474 2.3839 8.89896 2.34198C8.70448 2.32719 7.9789 2.32719 7.74203 2.34198C7.02643 2.38883 6.47789 2.49483 5.85455 2.70932C5.82961 2.71918 5.80717 2.72658 5.78473 2.73397C5.43317 2.26063 5.04171 1.81687 4.61035 1.41009C6.67985 0.362324 9.10092 0.236592 11.2677 1.06248C11.4996 1.14876 11.7264 1.24984 11.9484 1.35832L12.0481 1.40762Z" fill="#F00500"/>
<path d="M15.9078 10.7586C15.5937 11.6437 15.1224 12.4647 14.5115 13.1796C14.1799 13.5642 13.8134 13.9167 13.4194 14.2372C12.4969 14.9719 11.4198 15.497 10.2703 15.7731C8.99868 16.0764 7.6722 16.0764 6.40058 15.7731C5.24864 15.497 4.174 14.9719 3.25145 14.2372C2.8575 13.9167 2.49097 13.5642 2.15935 13.1796C0.401518 11.126 -0.132064 8.30564 0.763058 5.76388C0.932608 5.29301 1.14454 4.83938 1.39887 4.40795C1.51606 4.21072 1.66067 3.98885 1.73049 3.89763C1.96985 4.91581 2.26407 5.81072 2.37378 6.13368C2.3663 6.15094 2.35633 6.17066 2.34635 6.18792C1.7654 7.35156 1.45123 8.47328 1.37643 9.6665C1.37643 9.68129 1.37394 9.69855 1.37394 9.71334C1.35399 10.0708 1.36396 10.2409 1.4238 10.4653C1.61081 11.1679 2.18678 11.942 3.08938 12.7013C4.56795 13.9439 6.57263 14.8412 8.09109 14.9448C9.67439 15.0508 12.0107 14.1361 13.5665 12.7999C13.8109 12.5855 14.0403 12.3586 14.2547 12.117C14.4093 11.9395 14.6387 11.6338 14.6212 11.6338C14.6163 11.6338 14.6212 11.6289 14.6312 11.624C14.6387 11.619 14.6462 11.6116 14.6412 11.6067C14.6387 11.6043 14.6437 11.5969 14.6512 11.5944C14.6586 11.5919 14.6636 11.587 14.6611 11.5821C14.6586 11.5771 14.6611 11.5722 14.6711 11.5697C14.6786 11.5673 14.6811 11.5599 14.6786 11.5549C14.6761 11.55 14.6786 11.5451 14.6836 11.5451C14.6886 11.5451 14.6936 11.5377 14.6936 11.5328C14.6936 11.5278 14.6985 11.5204 14.7035 11.5204C14.7085 11.5204 14.7135 11.5155 14.7135 11.5106C14.721 11.4908 14.7334 11.4711 14.7459 11.4539C14.7833 11.3972 14.9329 11.1334 14.9529 11.089C15.095 10.771 15.1847 10.4875 15.2271 10.2039C15.2471 10.0684 15.2596 9.81935 15.2496 9.76019C15.2471 9.75033 15.2471 9.73307 15.2446 9.70595C15.2396 9.65664 15.2371 9.58268 15.2321 9.50872C15.2271 9.39778 15.2172 9.24247 15.2097 9.16604C15.1025 8.04678 14.8132 7.13214 14.2647 6.16327C14.2423 6.12629 14.2223 6.08931 14.2098 6.05972C14.2049 6.05233 14.2024 6.04493 14.1999 6.04C14.2772 5.81073 14.5938 4.85171 14.8457 3.75464L14.8506 3.75957L14.888 3.80888C14.9529 3.89516 15.1249 4.15156 15.2022 4.27482C15.5538 4.84185 15.828 5.45079 16.0225 6.08684C16.4738 7.61781 16.4364 9.24986 15.9078 10.7586Z" fill="#F00500"/>
<path d="M12.6713 7.8125C12.6638 7.85195 12.5466 7.97028 12.4294 8.05657C12.0853 8.30557 11.4695 8.53731 10.8436 8.64825C10.4871 8.71235 10.1305 8.72221 10.0233 8.67044C9.95349 8.63592 9.94352 8.6088 9.96845 8.52005C10.0208 8.33515 10.1904 8.133 10.4547 7.94317C10.5893 7.84702 11.1354 7.51913 11.3897 7.38107C11.8086 7.15426 12.1477 7.01867 12.3771 6.98662C12.4494 6.97676 12.5366 6.97429 12.5641 6.98662C12.6089 7.00387 12.6588 7.13454 12.6788 7.29232C12.6887 7.37614 12.6837 7.74594 12.6713 7.8125Z" fill="black"/>
<path d="M6.79654 8.62856C6.78158 8.65814 6.70678 8.69019 6.62201 8.70252C6.53723 8.71485 6.27792 8.70745 6.13081 8.69019C5.60222 8.62116 5.04121 8.46092 4.63229 8.26369C4.4029 8.15275 4.23834 8.04181 4.11616 7.92101L4.04635 7.84952L4.03887 7.75583C4.0264 7.59312 4.0289 7.33673 4.04884 7.24551C4.06131 7.16908 4.08874 7.09512 4.12614 7.02856C4.14609 7.00391 4.14609 7.00391 4.23585 7.00391C4.34556 7.00391 4.43781 7.02116 4.58741 7.06801C4.8941 7.16169 5.35039 7.3885 5.90641 7.71885C6.36519 7.99004 6.53723 8.12317 6.66938 8.3056C6.75914 8.41901 6.81898 8.57925 6.79654 8.62856Z" fill="black"/>
<path d="M10.3278 12.0603C10.3278 12.0677 10.2979 12.186 10.2605 12.3266C10.2231 12.4671 10.1932 12.5805 10.1932 12.5854C10.1658 12.5879 10.1408 12.5904 10.1134 12.5879H10.0336L9.9239 12.8443C9.86406 12.9848 9.80921 13.1155 9.80173 13.1352L9.78677 13.1697L9.73441 13.0859L9.68205 13.0021V12.3192L9.6621 12.3241C9.61971 12.334 9.31801 12.3734 9.18587 12.3857C8.63982 12.44 8.09127 12.4276 7.54772 12.3512C7.46045 12.3389 7.38565 12.329 7.38315 12.3315C7.38066 12.334 7.38315 12.4917 7.38814 12.6865L7.39562 13.0366L7.35323 13.1007C7.33079 13.1352 7.30835 13.1648 7.30835 13.1672C7.30087 13.1746 7.27594 13.1352 7.21859 13.0218C7.15626 12.9035 7.11138 12.7777 7.07896 12.6471L7.06151 12.5756L6.98421 12.5805L6.90692 12.5879L6.88697 12.4967C6.877 12.4474 6.86453 12.3709 6.85954 12.329L6.85207 12.2501L6.78724 12.1934C6.74983 12.1614 6.71244 12.1293 6.70496 12.1244C6.69249 12.1145 6.6875 12.0973 6.6875 12.0825V12.0529L6.99917 12.0554L7.31084 12.0578L7.32082 12.0899L7.33079 12.1219L7.43801 12.1269C7.49785 12.1293 7.68734 12.1343 7.85689 12.1392L8.16857 12.1466L8.24836 12.0233L8.33064 11.9001H8.43536L8.43286 11.6437L8.43037 11.3873L8.29324 11.3281C7.85191 11.1358 7.5926 10.9164 7.49535 10.6501C7.47541 10.5959 7.47541 10.5762 7.47042 10.3296C7.46793 10.0856 7.46793 10.0634 7.48538 10.0092C7.52029 9.88589 7.61753 9.78974 7.7422 9.75769C7.78459 9.74536 7.89679 9.74536 8.48523 9.74536L9.17838 9.74783L9.25568 9.78481C9.34793 9.82918 9.39032 9.86123 9.44268 9.93026C9.50252 10.0092 9.51998 10.0708 9.51998 10.2212C9.51998 10.4357 9.50502 10.6206 9.48258 10.6945C9.45016 10.7956 9.4003 10.8917 9.33796 10.978C9.21329 11.1358 8.98639 11.2936 8.77944 11.3651L8.7196 11.3873L8.7221 11.6461L8.72459 11.905L8.77944 11.9099L8.8343 11.9149L8.9091 12.0258L8.98141 12.1367H9.31552C9.50003 12.1367 9.6621 12.1392 9.67706 12.1417C9.70199 12.1466 9.70698 12.1441 9.73192 12.1022L9.76183 12.0578H10.0486C10.263 12.048 10.3278 12.0529 10.3278 12.0603Z" fill="black"/>
<path d="M9.01136 12.7679C8.96398 12.795 8.93157 12.8073 8.92409 12.8024C8.91661 12.8 8.8817 12.7704 8.8443 12.7432L8.77698 12.689L8.70716 12.763C8.55507 12.9257 8.55008 12.9331 8.5052 12.9355C8.43539 12.9429 8.42043 12.9306 8.33565 12.8049C8.29077 12.7408 8.25586 12.6865 8.25586 12.6865C8.25586 12.6865 8.22345 12.6816 8.18605 12.6791L8.11623 12.6718L8.08382 12.7383L8.05141 12.8049L7.99406 12.7876C7.94918 12.7728 7.9043 12.7556 7.86191 12.7359L7.78711 12.6989V12.5583L8.45035 12.5608L9.11358 12.5633L9.11608 12.6298C9.11857 12.7087 9.12107 12.7063 9.01136 12.7679Z" fill="black"/>
<path d="M15.2443 9.76024C15.2418 9.75038 15.2418 9.73312 15.2393 9.706C14.6409 9.6419 12.9329 9.60246 11.3471 10.8968C11.3471 10.8968 10.836 8.57935 8.44232 8.57935C6.04868 8.57935 5.16103 10.8968 5.16103 10.8968C3.8196 9.46933 2.02437 9.57287 1.37609 9.66656C1.37609 9.68135 1.37359 9.69861 1.37359 9.7134C1.35365 10.0709 1.36362 10.241 1.42346 10.4653C1.61046 11.1679 2.18644 11.9421 3.08904 12.7014C4.56761 13.9439 6.57228 14.8413 8.09075 14.9448C9.67405 15.0508 12.0103 14.1362 13.5662 12.8C13.8106 12.5855 14.0399 12.3587 14.2544 12.1171C14.409 11.9396 14.6384 11.6339 14.6209 11.6339C14.6159 11.6339 14.6209 11.629 14.6309 11.624C14.6384 11.6191 14.6458 11.6117 14.6409 11.6068C14.6384 11.6043 14.6433 11.5969 14.6508 11.5944C14.6583 11.592 14.6633 11.587 14.6608 11.5821C14.6583 11.5772 14.6608 11.5723 14.6708 11.5698C14.6783 11.5673 14.6807 11.5599 14.6783 11.555C14.6758 11.5501 14.6783 11.5451 14.6832 11.5451C14.6882 11.5451 14.6932 11.5377 14.6932 11.5328C14.6932 11.5279 14.6982 11.5205 14.7032 11.5205C14.7082 11.5205 14.7132 11.5156 14.7132 11.5106C14.7206 11.4909 14.7331 11.4712 14.7456 11.4539C14.783 11.3972 14.9326 11.1334 14.9525 11.0891C15.0946 10.771 15.1844 10.4875 15.2268 10.204C15.2418 10.0684 15.2542 9.81941 15.2443 9.76024ZM9.01081 12.7679C8.96343 12.7951 8.93102 12.8074 8.92354 12.8025C8.91606 12.8 8.88115 12.7704 8.84375 12.7433L8.77643 12.6891L8.70661 12.763C8.55452 12.9257 8.54953 12.9331 8.50465 12.9356C8.43484 12.943 8.41988 12.9307 8.3351 12.8049C8.29022 12.7408 8.25531 12.6866 8.25531 12.6866C8.25531 12.6866 8.2229 12.6817 8.1855 12.6792L8.11568 12.6718L8.08327 12.7384L8.05086 12.8049L7.99351 12.7877C7.94863 12.7729 7.90375 12.7556 7.86136 12.7359L7.78656 12.6989V12.5584L8.4498 12.5609L9.11304 12.5633L9.11553 12.6299C9.11802 12.7088 9.12052 12.7063 9.01081 12.7679ZM10.2575 12.3242C10.2201 12.4647 10.1902 12.5781 10.1902 12.583C10.1627 12.5855 10.1378 12.588 10.1104 12.5855H10.0306L9.92338 12.8444C9.86354 12.9849 9.80869 13.1156 9.80121 13.1353L9.78625 13.1698L9.73389 13.086L9.68153 13.0022V12.3193L9.66158 12.3242C9.61919 12.334 9.31749 12.3735 9.18534 12.3858C8.6393 12.4401 8.09075 12.4277 7.54719 12.3513C7.45993 12.339 7.38513 12.3291 7.38263 12.3316C7.38014 12.334 7.38263 12.4918 7.38762 12.6866L7.3951 13.0367L7.35271 13.1008C7.33027 13.1353 7.30783 13.1649 7.30783 13.1673C7.30035 13.1747 7.27542 13.1353 7.21807 13.0219C7.15574 12.9035 7.11086 12.7778 7.07844 12.6471L7.06099 12.5756L6.98369 12.5806L6.9064 12.588L6.88645 12.4968C6.87648 12.4475 6.86401 12.371 6.85902 12.3291L6.85154 12.2502L6.78671 12.1935C6.74931 12.1615 6.71192 12.1294 6.70443 12.1245C6.69197 12.1146 6.68698 12.0974 6.68698 12.0826V12.053L6.99865 12.0555L7.31032 12.0579L7.3203 12.09L7.33027 12.122L7.43749 12.127C7.49733 12.1294 7.68682 12.1344 7.85637 12.1393L8.16805 12.1467L8.24784 12.0234L8.33011 11.9001H8.43484L8.43234 11.6438L8.42985 11.3874L8.29271 11.3282C7.85139 11.1359 7.59208 10.9165 7.49483 10.6502C7.47489 10.596 7.47489 10.5763 7.4699 10.3297C7.46741 10.0857 7.46741 10.0635 7.48486 10.0092C7.51977 9.88597 7.61701 9.78982 7.74168 9.75777C7.78407 9.74545 7.89627 9.74545 8.48471 9.74545L9.17786 9.74791L9.25516 9.78489C9.34741 9.82927 9.3898 9.86132 9.44216 9.93035C9.502 10.0092 9.51946 10.0709 9.51946 10.2213C9.51946 10.4357 9.5045 10.6206 9.48206 10.6946C9.44964 10.7957 9.39977 10.8918 9.33744 10.9781C9.21277 11.1359 8.98587 11.2937 8.77892 11.3652L8.71908 11.3874L8.72158 11.6462L8.72407 11.9051L8.77892 11.91L8.83378 11.9149L8.90858 12.0259L8.98089 12.1368H9.315C9.49951 12.1368 9.66158 12.1393 9.67654 12.1417C9.70147 12.1467 9.70646 12.1442 9.73139 12.1023L9.76131 12.0579H10.0481C10.27 12.0579 10.3348 12.0604 10.3348 12.0678C10.3273 12.0653 10.2949 12.1861 10.2575 12.3242Z" fill="white"/>
<path d="M15.2243 9.50873C15.2193 9.39779 15.2093 9.24247 15.2019 9.16605C15.0946 8.04679 14.8054 7.13215 14.2569 6.16327C14.2344 6.12629 14.2145 6.08931 14.202 6.05973C14.197 6.05233 14.1945 6.04494 14.192 6.04001C14.2693 5.81073 14.586 4.85172 14.8378 3.75464C15.1794 2.26558 15.3963 0.525062 14.7331 0.0024114C14.7331 0.0024114 13.5861 -0.0814099 12.0502 1.40765C11.6338 1.81936 11.2523 2.26559 10.9132 2.74139L10.806 2.70688C10.1877 2.50719 9.54688 2.38392 8.90109 2.34201C8.70661 2.32722 7.98104 2.32722 7.74416 2.34201C7.02857 2.38885 6.48002 2.49486 5.85668 2.70934C5.83175 2.71921 5.8093 2.7266 5.78686 2.734C5.4353 2.26065 5.04384 1.8169 4.61248 1.41012C3.01423 -0.0863404 1.82489 -5.40801e-05 1.82489 -5.40801e-05C1.12176 0.539853 1.36112 2.35927 1.72515 3.89763C1.96452 4.91582 2.25874 5.81073 2.36844 6.13369C2.36096 6.15095 2.35099 6.17067 2.34102 6.18793C1.76006 7.35156 1.4459 8.47329 1.37109 9.66651C2.02187 9.57283 3.8146 9.46682 5.15853 10.8967C5.15853 10.8967 6.04618 8.5793 8.43982 8.5793C10.8335 8.5793 11.3446 10.8967 11.3446 10.8967C12.9304 9.60241 14.6384 9.64432 15.2368 9.70595C15.2343 9.65665 15.2293 9.58269 15.2243 9.50873ZM2.83969 5.20426C2.83969 5.20426 1.90717 2.89918 2.14653 1.58269C2.18643 1.36081 2.26123 1.16605 2.37842 1.01813C2.37842 1.01813 3.43561 1.12167 5.14108 2.99532C5.14108 2.99532 4.81694 3.15064 4.38309 3.48099C4.38309 3.48099 4.3806 3.48346 4.37811 3.48346C3.90686 3.84093 3.30346 4.40796 2.83969 5.20426ZM6.79668 8.6286C6.78172 8.65819 6.70692 8.69024 6.62214 8.70257C6.53737 8.71489 6.27806 8.7075 6.13095 8.69024C5.60236 8.62121 5.04135 8.46096 4.63243 8.26374C4.40304 8.1528 4.23848 8.04186 4.1163 7.92105L4.04649 7.84956L4.03901 7.75588C4.02654 7.59317 4.02903 7.33677 4.04898 7.24555C4.06145 7.16913 4.08887 7.09517 4.12628 7.0286C4.14622 7.00395 4.14622 7.00395 4.23598 7.00395C4.34569 7.00395 4.43795 7.02121 4.58755 7.06805C4.89424 7.16173 5.35052 7.38854 5.90655 7.7189C6.36533 7.99008 6.53737 8.12321 6.66952 8.30565C6.75928 8.41905 6.81912 8.5793 6.79668 8.6286ZM12.6711 7.81258C12.6636 7.85203 12.5464 7.97036 12.4292 8.05665C12.0851 8.30565 11.4693 8.53739 10.8434 8.64833C10.4869 8.71243 10.1303 8.72229 10.0231 8.67052C9.9533 8.636 9.94332 8.60888 9.96826 8.52013C10.0206 8.33523 10.1902 8.13307 10.4545 7.94324C10.5891 7.8471 11.1352 7.51921 11.3895 7.38115C11.8084 7.15434 12.1475 7.01874 12.3769 6.98669C12.4492 6.97683 12.5364 6.97437 12.5639 6.98669C12.6087 7.00395 12.6586 7.13461 12.6786 7.2924C12.6885 7.37622 12.6835 7.74602 12.6711 7.81258ZM12.2572 3.48099L12.2522 3.47853C11.8333 3.14817 11.5191 2.99286 11.5191 2.99286C13.1673 1.11921 14.1871 1.01566 14.1871 1.01566C14.2993 1.16605 14.3716 1.35834 14.4115 1.58022C14.6433 2.89671 13.7432 5.20426 13.7432 5.20426C13.3667 4.54109 12.8606 3.95434 12.2572 3.48099Z" fill="#FFA409"/>
<path d="M14.4143 1.58019C14.2199 1.55553 13.2998 1.5506 12.2576 3.48096L12.2526 3.47849C11.8337 3.14814 11.5195 2.99282 11.5195 2.99282C13.1677 1.11917 14.1874 1.01562 14.1874 1.01562C14.3021 1.16601 14.3744 1.35831 14.4143 1.58019Z" fill="#FF9300"/>
<path d="M13.7464 5.20413C13.3674 4.53849 12.8637 3.95421 12.2578 3.48086C13.3 1.55051 14.2176 1.55544 14.4146 1.58009C14.6465 2.89904 13.7464 5.20413 13.7464 5.20413Z" fill="#FF8300"/>
<path d="M14.4515 1.58747C14.439 1.58501 14.4265 1.58254 14.4141 1.58008L14.4515 1.58747Z" fill="#FF8300"/>
<path d="M5.14157 2.99282C5.14157 2.99282 4.81743 3.14814 4.38358 3.47849C4.38358 3.47849 4.38109 3.48096 4.3786 3.48096C3.29896 1.54814 2.34899 1.55553 2.14453 1.58019C2.18443 1.35831 2.25923 1.16354 2.37642 1.01563C2.37891 1.01563 3.4361 1.11917 5.14157 2.99282Z" fill="#FF9300"/>
<path d="M4.38175 3.48086C3.90801 3.8408 3.30462 4.40536 2.84085 5.20413C2.84085 5.20413 1.90833 2.89904 2.14769 1.58009C2.34965 1.55544 3.30212 1.55051 4.38175 3.48086Z" fill="#FF8300"/>
<path d="M2.14732 1.58008C2.13485 1.58254 2.11989 1.58501 2.10742 1.58747L2.14732 1.58008Z" fill="#FF8300"/>
<path d="M11.2224 6.48373C11.2224 6.48373 10.4245 6.53304 10.5243 5.9167C10.624 5.30037 11.2473 5.22641 11.4219 5.25107C11.5964 5.27572 12.2946 5.52225 12.1699 6.03997C12.0452 6.55769 11.8707 6.45908 11.7709 6.48373C11.6712 6.50838 11.2224 6.48373 11.2224 6.48373Z" fill="white"/>
<path d="M5.33861 6.48373C5.33861 6.48373 4.54073 6.53304 4.64046 5.9167C4.7402 5.30037 5.36354 5.22641 5.53808 5.25107C5.71262 5.27572 6.41076 5.52225 6.28609 6.03997C6.16142 6.55769 5.98689 6.45908 5.88715 6.48373C5.78742 6.50838 5.33861 6.48373 5.33861 6.48373Z" fill="white"/>
</svg>
