<svg width="24" height="24" viewBox="0 0 24 24" fill="none" xmlns="http://www.w3.org/2000/svg">
<path fill-rule="evenodd" clip-rule="evenodd" d="M13.3333 2.5C13.3333 2.22386 13.5572 2 13.8333 2H15.1666C15.4428 2 15.6666 2.22386 15.6666 2.5V4H17.5C17.7761 4 18 4.22386 18 4.5V10.0709C17.6734 10.0242 17.3395 10 17 10C14.4537 10 12.2249 11.3596 11 13.3924V4.5C11 4.22386 11.2239 4 11.5 4H13.3333V2.5ZM4.33331 2.66669C4.33331 2.39054 4.55717 2.16669 4.83331 2.16669H6.16665C6.44279 2.16669 6.66665 2.39054 6.66665 2.66669V7.00001H8.5C8.77614 7.00001 9 7.22387 9 7.50001V19.5C9 19.7761 8.77614 20 8.5 20H6.66665V21.5C6.66665 21.7762 6.44279 22 6.16665 22H4.83331C4.55717 22 4.33331 21.7762 4.33331 21.5V20H2.5C2.22386 20 2 19.7761 2 19.5V7.50001C2 7.22387 2.22386 7.00001 2.5 7.00001H4.33331V2.66669Z" fill="white"/>
<path opacity="0.5" fill-rule="evenodd" clip-rule="evenodd" d="M19.585 20.9048H14.7959L14.9726 22.1414C15.043 22.6341 15.4649 23 15.9625 23H18.4184C18.9161 23 19.338 22.6341 19.4084 22.1414L19.585 20.9048ZM19.7532 19.8572H14.6277C14.5671 19.6155 14.4729 19.3888 14.3045 19.2288C13.501 18.4653 13 17.3864 13 16.1905C13 13.8761 14.8761 12 17.1905 12C19.5048 12 21.381 13.8761 21.381 16.1905C21.381 17.3864 20.88 18.4652 20.0765 19.2287C19.9081 19.3888 19.8139 19.6154 19.7532 19.8572ZM17.1905 14.5714C16.2963 14.5714 15.5714 15.2963 15.5714 16.1904C15.5714 16.7427 15.1237 17.1904 14.5714 17.1904C14.0192 17.1904 13.5714 16.7427 13.5714 16.1904C13.5714 14.1917 15.1918 12.5714 17.1905 12.5714C17.7428 12.5714 18.1905 13.0191 18.1905 13.5714C18.1905 14.1237 17.7428 14.5714 17.1905 14.5714Z" fill="white"/>
</svg>
