<svg width="14" height="11" viewBox="0 0 14 11" fill="none" xmlns="http://www.w3.org/2000/svg">
<path d="M11.6772 1.00612C10.8261 0.624616 9.91347 0.343542 8.95921 0.18256C8.94183 0.179453 8.92447 0.187217 8.91552 0.202747C8.79814 0.406691 8.66813 0.672753 8.57708 0.881877C7.55071 0.731768 6.52961 0.731768 5.52429 0.881877C5.43323 0.668105 5.29849 0.406691 5.18058 0.202747C5.17163 0.187736 5.15427 0.179971 5.13689 0.18256C4.18316 0.343028 3.27049 0.624101 2.41886 1.00612C2.41149 1.00922 2.40517 1.0144 2.40097 1.02113C0.669821 3.5477 0.195586 6.01217 0.42823 8.44609C0.429282 8.45799 0.436125 8.46939 0.445599 8.47662C1.58776 9.29603 2.69415 9.79349 3.77998 10.1232C3.79736 10.1284 3.81577 10.1222 3.82683 10.1082C4.08369 9.76554 4.31265 9.40423 4.50896 9.02427C4.52055 9.00202 4.50949 8.97562 4.48581 8.96682C4.12264 8.83224 3.77682 8.66815 3.44417 8.48181C3.41786 8.46679 3.41576 8.43003 3.43996 8.41243C3.50996 8.36119 3.57998 8.30787 3.64683 8.25403C3.65892 8.2442 3.67577 8.24213 3.68999 8.24834C5.87535 9.22305 8.24127 9.22305 10.4009 8.24834C10.4151 8.24161 10.4319 8.24369 10.4445 8.25352C10.5114 8.30735 10.5814 8.36119 10.6519 8.41243C10.6761 8.43003 10.6746 8.46679 10.6482 8.48181C10.3156 8.67177 9.96978 8.83224 9.60608 8.96631C9.5824 8.97511 9.57187 9.00202 9.58346 9.02427C9.78398 9.4037 10.0129 9.76501 10.2651 10.1077C10.2756 10.1222 10.2945 10.1284 10.3119 10.1232C11.403 9.79349 12.5094 9.29603 13.6516 8.47662C13.6616 8.46939 13.6679 8.45851 13.6689 8.4466C13.9474 5.63273 13.2026 3.18847 11.6946 1.02164C11.6909 1.0144 11.6846 1.00922 11.6772 1.00612ZM4.83531 6.96409C4.17737 6.96409 3.63524 6.37399 3.63524 5.6493C3.63524 4.92461 4.16685 4.33451 4.83531 4.33451C5.50902 4.33451 6.0459 4.92979 6.03537 5.6493C6.03537 6.37399 5.50375 6.96409 4.83531 6.96409ZM9.27238 6.96409C8.61445 6.96409 8.07232 6.37399 8.07232 5.6493C8.07232 4.92461 8.60392 4.33451 9.27238 4.33451C9.9461 4.33451 10.483 4.92979 10.4725 5.6493C10.4725 6.37399 9.9461 6.96409 9.27238 6.96409Z" fill="#9CA3AF"/>
</svg>
