<svg width="13" height="12" viewBox="0 0 13 12" fill="none" xmlns="http://www.w3.org/2000/svg">
<path fill-rule="evenodd" clip-rule="evenodd" d="M9.23216 11.3895C9.43127 11.5448 9.67651 11.6291 9.92898 11.6291C10.1935 11.6288 10.4499 11.5375 10.6551 11.3706C10.8603 11.2037 11.0019 10.9714 11.0562 10.7125L12.8879 1.72069C12.9287 1.51755 12.9138 1.30713 12.8446 1.1118C12.7755 0.91647 12.6546 0.743534 12.4951 0.611377C12.3355 0.47922 12.143 0.392782 11.9382 0.361252C11.7334 0.329723 11.5239 0.35428 11.3319 0.432313L1.27164 4.49427C1.05641 4.58261 0.873146 4.73435 0.746207 4.92933C0.619269 5.12431 0.554661 5.3533 0.560968 5.58587C0.567275 5.81845 0.644198 6.0436 0.781517 6.23141C0.918836 6.41922 1.11005 6.56081 1.32976 6.63736L3.36281 7.34443L3.28202 7.07767C3.24398 6.95243 3.25094 6.81783 3.3017 6.69718C3.35247 6.57653 3.44384 6.47744 3.55998 6.41708L9.49255 3.32824C9.61147 3.26618 9.74869 3.24877 9.87934 3.27916C10.01 3.30954 10.1254 3.38572 10.2048 3.49388C10.2841 3.60205 10.3221 3.73505 10.3118 3.8688C10.3015 4.00255 10.2437 4.12819 10.1488 4.22298L6.17237 8.1994L5.5863 11.047C5.56125 11.1693 5.4961 11.2798 5.40116 11.3609C5.37125 11.3865 5.33893 11.4087 5.30477 11.4273C5.35999 11.3973 5.41 11.3581 5.45256 11.3111L6.96955 9.63681L9.23216 11.3895Z" fill="#9CA3AF"/>
</svg>
