<svg width="32" height="33" viewBox="0 0 32 33" fill="none" xmlns="http://www.w3.org/2000/svg">
<g opacity="0.5">
<path d="M20.4444 3.83317C20.4444 3.46498 20.7429 3.1665 21.1111 3.1665H22.8889C23.2571 3.1665 23.5556 3.46498 23.5556 3.83317V28.9443C23.5556 29.3125 23.2571 29.611 22.8889 29.611H21.1111C20.7429 29.611 20.4444 29.3125 20.4444 28.9443V3.83317Z" fill="#31ADF3"/>
<path d="M8.44444 4.0554C8.44444 3.68721 8.74292 3.38873 9.11111 3.38873H10.8889C11.2571 3.38873 11.5556 3.68721 11.5556 4.0554V29.1665C11.5556 29.5347 11.2571 29.8332 10.8889 29.8332H9.11111C8.74292 29.8332 8.44444 29.5347 8.44444 29.1665V4.0554Z" fill="#31ADF3"/>
</g>
<path d="M17.3333 6.49968C17.3333 6.13149 17.6318 5.83301 18 5.83301H26C26.3682 5.83301 26.6667 6.13148 26.6667 6.49967V22.4997C26.6667 22.8679 26.3682 23.1663 26 23.1663H18C17.6318 23.1663 17.3333 22.8679 17.3333 22.4997V6.49968Z" fill="#31ADF3"/>
<path d="M5.33333 10.4997C5.33333 10.1315 5.63181 9.83302 6 9.83302H14C14.3682 9.83302 14.6667 10.1315 14.6667 10.4997V26.4997C14.6667 26.8679 14.3682 27.1664 14 27.1664H6C5.63181 27.1664 5.33333 26.8679 5.33333 26.4997V10.4997Z" fill="#31ADF3"/>
</svg>
