<svg width="12" height="10" viewBox="0 0 12 10" fill="none" xmlns="http://www.w3.org/2000/svg">
<path d="M11.9781 1.67833C11.5561 1.8614 11.1098 1.98242 10.6532 2.03762C11.1349 1.7498 11.496 1.29701 11.6693 0.763238C11.2166 1.03275 10.721 1.22263 10.204 1.32464C9.85851 0.949945 9.3984 0.700527 8.89585 0.615505C8.39331 0.530484 7.87676 0.614667 7.42721 0.854853C6.97767 1.09504 6.62056 1.47764 6.41189 1.94265C6.20322 2.40767 6.15479 2.92879 6.27421 3.42429C5.3588 3.37799 4.46337 3.13963 3.64609 2.7247C2.8288 2.30978 2.10795 1.72756 1.53035 1.01587C1.32776 1.36965 1.22131 1.7703 1.22158 2.17797C1.22086 2.55657 1.31377 2.92948 1.49204 3.26348C1.6703 3.59749 1.9284 3.88223 2.24333 4.09236C1.87729 4.0824 1.51906 3.98418 1.19912 3.80604L1.19912 3.83411C1.20187 4.36458 1.38775 4.87781 1.72533 5.28701C2.06292 5.6962 2.53148 5.97623 3.05175 6.07973C2.85148 6.14068 2.64354 6.17281 2.43421 6.17517C2.28931 6.17347 2.14476 6.16033 2.00193 6.13587C2.15009 6.59218 2.43681 6.99097 2.82218 7.27673C3.20756 7.56249 3.67243 7.72102 4.1521 7.73025C3.34211 8.3676 2.34207 8.71544 1.3114 8.71832C1.12375 8.71894 0.936237 8.70769 0.75 8.68464C1.80231 9.36408 3.02863 9.72476 4.28123 9.72323C5.14561 9.73221 6.00313 9.56886 6.80368 9.24272C7.60423 8.91658 8.33176 8.43419 8.94379 7.82372C9.55583 7.21326 10.0401 6.48696 10.3683 5.68725C10.6965 4.88754 10.862 4.03045 10.8553 3.16604C10.8553 3.07061 10.8553 2.96955 10.8553 2.8685C11.2958 2.53997 11.6757 2.13723 11.9781 1.67833V1.67833Z" fill="#9CA3AF"/>
</svg>
