<svg width="26" height="24" viewBox="0 0 26 24" fill="none" xmlns="http://www.w3.org/2000/svg">
<path d="M24.7235 2.59229L15.6002 8.06464L14.2893 7.28503L25.9844 0.275879L25.9789 8.08704L20.8374 11.1719L19.5281 10.3939L24.713 7.28503L24.7163 5.72135L18.2172 9.61768L16.9095 8.8392L24.718 4.15934L24.718 4.15766L24.7202 4.15598L24.7235 2.59229Z" fill="#31ADF3"/>
<path opacity="0.5" d="M1.27651 21.4077L10.3998 15.9354L11.7107 16.715L0.015625 23.7241L0.0211266 15.913L5.16258 12.8281L6.47187 13.6061L1.28696 16.715L1.28366 18.2787L7.78282 14.3823L9.09046 15.1608L1.28201 19.8407L1.28201 19.8423L1.27981 19.844L1.27651 21.4077Z" fill="#31ADF3"/>
<path d="M25.9708 23.5737L6.48483 11.9603L12.9823 8.06616L18.9946 11.6416L25.9746 15.7978L25.9746 17.343L18.9946 13.1963L13.9572 10.2011L12.9917 9.62761L12.9895 9.62761L11.6857 10.4095L13.9572 11.7586L18.9946 14.7527L25.9746 18.8994L25.9746 20.4575L16.9823 15.1151L13.9572 13.319L10.3803 11.193L10.3786 11.193L9.07427 11.9748L13.9572 14.8771L14.3582 15.1151L25.9708 22.0156L25.9708 23.5737Z" fill="#31ADF3"/>
<path opacity="0.5" d="M1.27651 2.59229L10.3998 8.06464L11.7107 7.28504L0.015625 0.275879L0.0211259 8.08704L5.16258 11.1719L6.47187 10.3939L1.28696 7.28503L1.28366 5.72135L7.78282 9.61769L9.09046 8.8392L1.28201 4.15934L1.28201 4.15766L1.27981 4.15598L1.27651 2.59229Z" fill="#31ADF3"/>
</svg>
