<svg width="32" height="33" viewBox="0 0 32 33" fill="none" xmlns="http://www.w3.org/2000/svg">
<path d="M2.66666 7.16683C2.66666 6.43045 3.26361 5.8335 3.99999 5.8335H28C28.7364 5.8335 29.3333 6.43045 29.3333 7.16683V9.3335C29.3333 9.60964 29.1095 9.8335 28.8333 9.8335H18C16.159 9.8335 14.6667 11.3259 14.6667 13.1668V19.8335C14.6667 21.6745 16.159 23.1668 18 23.1668H28.8333C29.1095 23.1668 29.3333 23.3907 29.3333 23.6668V25.8335C29.3333 26.5699 28.7364 27.1668 28 27.1668H3.99999C3.26361 27.1668 2.66666 26.5699 2.66666 25.8335V7.16683Z" fill="#31ADF3"/>
<path opacity="0.5" fill-rule="evenodd" clip-rule="evenodd" d="M18 12.5H28.8333C29.1095 12.5 29.3333 12.7239 29.3333 13V20C29.3333 20.2761 29.1095 20.5 28.8333 20.5H18C17.6318 20.5 17.3333 20.2015 17.3333 19.8333V13.1667C17.3333 12.7985 17.6318 12.5 18 12.5ZM21.3333 17.8333C22.0697 17.8333 22.6666 17.2364 22.6666 16.5C22.6666 15.7636 22.0697 15.1667 21.3333 15.1667C20.5969 15.1667 20 15.7636 20 16.5C20 17.2364 20.5969 17.8333 21.3333 17.8333Z" fill="#31ADF3"/>
</svg>
